# Blender v2.76 (sub 0) OBJ File: ''
# www.blender.org
v 0.000000 0.000000 0.000000
v 0.000000 1.000000 0.000000
v 0.101464 0.103026 0.101464
v -0.101464 0.103026 0.101464
v -0.101464 0.103026 -0.101464
v 0.101464 0.103026 -0.101464
vt 0.500000 0.500000
vt 0.000000 1.000000
vt 1.000000 1.000000
vt 1.000000 0.000000
vt 0.000000 0.000000
vn 0.000000 -0.701700 0.712500
vn 0.000000 -0.701700 -0.712500
vn -0.712500 -0.701700 0.000000
vn 0.712500 -0.701700 0.000000
vn 0.000000 0.112400 0.993700
vn 0.000000 0.112400 -0.993700
vn -0.993700 0.112400 0.000000
vn 0.993700 0.112400 0.000000
s off
f 1/1/1 3/2/1 4/3/1
f 1/1/2 5/4/2 6/5/2
f 1/1/3 4/3/3 5/4/3
f 1/1/4 6/5/4 3/2/4
f 4/3/5 3/2/5 2/1/5
f 6/5/6 5/4/6 2/1/6
f 5/4/7 4/3/7 2/1/7
f 3/2/8 6/5/8 2/1/8
